# xmcd
#
# Track frame offsets: 
#        150
#        20165
#        38668
#        55240
#        73221
#        88761
#        109403
#        124442
#        140477
#        164011
#        182995
#
# Disc length: 2666 seconds
#
# Revision: 0
# Processed by: cddbd v1.5.2PL0 Copyright (c) Steve Scherf et al.
# Submitted via: ExactAudioCopy v1.0b1
#
DISCID=ad0a680b
DTITLE=Soyka, Yanina and Kompania - Radical Graża
DYEAR=1993
DGENRE=Vocal
TTITLE0=Ploniemy Ploniemy
TTITLE1=Jakby Nie Bylo Jutra
TTITLE2=Let Me Take You Dancing
TTITLE3=Czekanie Na Ciebie
TTITLE4=Niech Drgnie Twoje Oko
TTITLE5=Cisza Ratunkowa
TTITLE6=Madame Schizofrenia
TTITLE7=Suddenly
TTITLE8=Fa Na Na Na
TTITLE9=Aniol W Ciemnej Dolinie
TTITLE10=Radical Graza
EXTD=
EXTT0=
EXTT1=
EXTT2=
EXTT3=
EXTT4=
EXTT5=
EXTT6=
EXTT7=
EXTT8=
EXTT9=
EXTT10=
PLAYORDER=
